<svg width="20" height="20" viewBox="0 0 20 20" fill="none" xmlns="http://www.w3.org/2000/svg">
<g clip-path="url(#clip0_313_16)">
<path d="M7.5 0.625H2.5C2.00272 0.625 1.52581 0.822544 1.17417 1.17417C0.822544 1.52581 0.625 2.00272 0.625 2.5V11.25C0.625 11.7473 0.822544 12.2242 1.17417 12.5758C1.52581 12.9275 2.00272 13.125 2.5 13.125H7.5C7.99728 13.125 8.47419 12.9275 8.82583 12.5758C9.17746 12.2242 9.375 11.7473 9.375 11.25V2.5C9.375 2.00272 9.17746 1.52581 8.82583 1.17417C8.47419 0.822544 7.99728 0.625 7.5 0.625V0.625ZM8.125 11.25C8.125 11.4158 8.05915 11.5747 7.94194 11.6919C7.82473 11.8092 7.66576 11.875 7.5 11.875H2.5C2.33424 11.875 2.17527 11.8092 2.05806 11.6919C1.94085 11.5747 1.875 11.4158 1.875 11.25V2.5C1.875 2.33424 1.94085 2.17527 2.05806 2.05806C2.17527 1.94085 2.33424 1.875 2.5 1.875H7.5C7.66576 1.875 7.82473 1.94085 7.94194 2.05806C8.05915 2.17527 8.125 2.33424 8.125 2.5V11.25Z" fill="#1F4173"/>
<path d="M7.5 14.375H2.5C2.00272 14.375 1.52581 14.5725 1.17417 14.9242C0.822544 15.2758 0.625 15.7527 0.625 16.25V17.5C0.625 17.9973 0.822544 18.4742 1.17417 18.8258C1.52581 19.1775 2.00272 19.375 2.5 19.375H7.5C7.99728 19.375 8.47419 19.1775 8.82583 18.8258C9.17746 18.4742 9.375 17.9973 9.375 17.5V16.25C9.375 15.7527 9.17746 15.2758 8.82583 14.9242C8.47419 14.5725 7.99728 14.375 7.5 14.375ZM8.125 17.5C8.125 17.6658 8.05915 17.8247 7.94194 17.9419C7.82473 18.0592 7.66576 18.125 7.5 18.125H2.5C2.33424 18.125 2.17527 18.0592 2.05806 17.9419C1.94085 17.8247 1.875 17.6658 1.875 17.5V16.25C1.875 16.0842 1.94085 15.9253 2.05806 15.8081C2.17527 15.6908 2.33424 15.625 2.5 15.625H7.5C7.66576 15.625 7.82473 15.6908 7.94194 15.8081C8.05915 15.9253 8.125 16.0842 8.125 16.25V17.5Z" fill="#1F4173"/>
<path d="M17.5 6.875H12.5C12.0027 6.875 11.5258 7.07254 11.1742 7.42417C10.8225 7.77581 10.625 8.25272 10.625 8.75V17.5C10.625 17.9973 10.8225 18.4742 11.1742 18.8258C11.5258 19.1775 12.0027 19.375 12.5 19.375H17.5C17.9973 19.375 18.4742 19.1775 18.8258 18.8258C19.1775 18.4742 19.375 17.9973 19.375 17.5V8.75C19.375 8.25272 19.1775 7.77581 18.8258 7.42417C18.4742 7.07254 17.9973 6.875 17.5 6.875V6.875ZM18.125 17.5C18.125 17.6658 18.0592 17.8247 17.9419 17.9419C17.8247 18.0592 17.6658 18.125 17.5 18.125H12.5C12.3342 18.125 12.1753 18.0592 12.0581 17.9419C11.9408 17.8247 11.875 17.6658 11.875 17.5V8.75C11.875 8.58424 11.9408 8.42527 12.0581 8.30806C12.1753 8.19085 12.3342 8.125 12.5 8.125H17.5C17.6658 8.125 17.8247 8.19085 17.9419 8.30806C18.0592 8.42527 18.125 8.58424 18.125 8.75V17.5Z" fill="#1F4173"/>
<path d="M17.5 0.625H12.5C12.0027 0.625 11.5258 0.822544 11.1742 1.17417C10.8225 1.52581 10.625 2.00272 10.625 2.5V3.75C10.625 4.24728 10.8225 4.72419 11.1742 5.07583C11.5258 5.42746 12.0027 5.625 12.5 5.625H17.5C17.9973 5.625 18.4742 5.42746 18.8258 5.07583C19.1775 4.72419 19.375 4.24728 19.375 3.75V2.5C19.375 2.00272 19.1775 1.52581 18.8258 1.17417C18.4742 0.822544 17.9973 0.625 17.5 0.625V0.625ZM18.125 3.75C18.125 3.91576 18.0592 4.07473 17.9419 4.19194C17.8247 4.30915 17.6658 4.375 17.5 4.375H12.5C12.3342 4.375 12.1753 4.30915 12.0581 4.19194C11.9408 4.07473 11.875 3.91576 11.875 3.75V2.5C11.875 2.33424 11.9408 2.17527 12.0581 2.05806C12.1753 1.94085 12.3342 1.875 12.5 1.875H17.5C17.6658 1.875 17.8247 1.94085 17.9419 2.05806C18.0592 2.17527 18.125 2.33424 18.125 2.5V3.75Z" fill="#1F4173"/>
</g>
<defs>
<clipPath id="clip0_313_16">
<rect width="20" height="20" fill="white"/>
</clipPath>
</defs>
</svg>
