<svg width="14" height="14" viewBox="0 0 14 14" fill="none" xmlns="http://www.w3.org/2000/svg">
<path d="M11.297 1.07815H10.7748V0.549744C10.7748 0.24784 10.5301 0.00311279 10.2282 0.00311279C9.92631 0.00311279 9.68158 0.24784 9.68158 0.549744V1.07815H4.31839V0.549744C4.31839 0.24784 4.07366 0.00311279 3.77176 0.00311279C3.46985 0.00311279 3.22513 0.24784 3.22513 0.549744V1.07815H2.70296C1.21254 1.07815 0 2.29068 0 3.78108V11.2939C0 12.7843 1.21254 13.9969 2.70296 13.9969H11.2971C12.7875 13.9969 14 12.7843 14 11.2939V3.78108C14 2.29068 12.7875 1.07815 11.297 1.07815ZM2.70296 2.17141H3.22513V3.23734C3.22513 3.53925 3.46985 3.78397 3.77176 3.78397C4.07366 3.78397 4.31839 3.53925 4.31839 3.23734V2.17141H9.68161V3.23734C9.68161 3.53925 9.92634 3.78397 10.2282 3.78397C10.5301 3.78397 10.7749 3.53925 10.7749 3.23734V2.17141H11.2971C12.1846 2.17141 12.9067 2.89351 12.9067 3.78108V4.30327H1.09326V3.78108C1.09326 2.89351 1.81536 2.17141 2.70296 2.17141ZM11.297 12.9036H2.70296C1.81536 12.9036 1.09326 12.1815 1.09326 11.2939V5.39654H12.9067V11.2939C12.9067 12.1815 12.1846 12.9036 11.297 12.9036ZM4.85592 7.54663C4.85592 7.84853 4.61119 8.09326 4.30929 8.09326H3.23425C2.93235 8.09326 2.68762 7.84853 2.68762 7.54663C2.68762 7.24472 2.93235 7 3.23425 7H4.30929C4.61117 7 4.85592 7.24472 4.85592 7.54663ZM11.3124 7.54663C11.3124 7.84853 11.0677 8.09326 10.7658 8.09326H9.69074C9.38883 8.09326 9.14411 7.84853 9.14411 7.54663C9.14411 7.24472 9.38883 7 9.69074 7H10.7658C11.0676 7 11.3124 7.24472 11.3124 7.54663ZM8.08105 7.54663C8.08105 7.84853 7.83632 8.09326 7.53441 8.09326H6.45938C6.15748 8.09326 5.91275 7.84853 5.91275 7.54663C5.91275 7.24472 6.15748 7 6.45938 7H7.53441C7.83629 7 8.08105 7.24472 8.08105 7.54663ZM4.85592 10.7718C4.85592 11.0737 4.61119 11.3184 4.30929 11.3184H3.23425C2.93235 11.3184 2.68762 11.0737 2.68762 10.7718C2.68762 10.4699 2.93235 10.2251 3.23425 10.2251H4.30929C4.61117 10.2251 4.85592 10.4699 4.85592 10.7718ZM11.3124 10.7718C11.3124 11.0737 11.0677 11.3184 10.7658 11.3184H9.69074C9.38883 11.3184 9.14411 11.0737 9.14411 10.7718C9.14411 10.4699 9.38883 10.2251 9.69074 10.2251H10.7658C11.0676 10.2251 11.3124 10.4699 11.3124 10.7718ZM8.08105 10.7718C8.08105 11.0737 7.83632 11.3184 7.53441 11.3184H6.45938C6.15748 11.3184 5.91275 11.0737 5.91275 10.7718C5.91275 10.4699 6.15748 10.2251 6.45938 10.2251H7.53441C7.83629 10.2251 8.08105 10.4699 8.08105 10.7718Z" fill="#7D88A0"/>
</svg>
