<svg width="25" height="25" viewBox="0 0 25 25" fill="none" xmlns="http://www.w3.org/2000/svg">
<g clip-path="url(#clip0_1_125)">
<path d="M20.1736 3.5L22.1736 7.5V20.5C22.1736 20.7652 22.0683 21.0196 21.8808 21.2071C21.6932 21.3946 21.4389 21.5 21.1736 21.5H3.17365C2.90843 21.5 2.65407 21.3946 2.46654 21.2071C2.279 21.0196 2.17365 20.7652 2.17365 20.5V7.504L4.17365 3.5H20.1736ZM20.1736 9.5H4.17365V19.5H20.1736V9.5ZM12.1736 10.5L16.1736 14.5H13.1736V18.5H11.1736V14.5H8.17365L12.1736 10.5ZM18.9376 5.5H5.40965L4.41065 7.5H19.9376L18.9376 5.5Z" fill="#1F4173"/>
</g>
<defs>
<clipPath id="clip0_1_125">
<rect width="24" height="24" fill="white" transform="translate(0.173645 0.5)"/>
</clipPath>
</defs>
</svg>
