<svg width="8" height="9" viewBox="0 0 8 9" fill="none" xmlns="http://www.w3.org/2000/svg">
<path d="M7.84007 6.32889L5.03734 1.47433C4.57955 0.672374 3.42189 0.672374 2.96575 1.47433L0.161368 6.32889C-0.296423 7.13085 0.273345 8.12712 1.19716 8.12712H6.7944C7.71822 8.12712 8.29786 7.12097 7.84007 6.32889ZM3.9999 7.05016C3.75618 7.05016 3.55363 6.84761 3.55363 6.6039C3.55363 6.36018 3.75618 6.15763 3.9999 6.15763C4.24361 6.15763 4.44616 6.36018 4.43628 6.61543C4.44781 6.84762 4.23373 7.05016 3.9999 7.05016ZM4.40664 4.16509C4.38688 4.5109 4.36547 4.85507 4.34571 5.20088C4.33583 5.31286 4.33583 5.41496 4.33583 5.52529C4.32595 5.70808 4.18268 5.8497 3.9999 5.8497C3.81711 5.8497 3.67549 5.71796 3.66396 5.53517C3.63432 4.99669 3.60303 4.46809 3.57339 3.92961C3.56351 3.78799 3.55363 3.64472 3.54211 3.5031C3.54211 3.26927 3.67384 3.0766 3.88792 3.01567C4.10199 2.96462 4.31442 3.06672 4.40664 3.26927C4.43793 3.34008 4.44781 3.41089 4.44781 3.49322C4.43793 3.71883 4.41652 3.94278 4.40664 4.16509Z" fill="#FC3D3D"/>
</svg>
