<svg width="15" height="14" viewBox="0 0 15 14" fill="none" xmlns="http://www.w3.org/2000/svg">
<path d="M0.329712 7.02412C0.329712 6.41141 0.407629 5.81783 0.553545 5.25045C0.944875 5.27103 1.33427 5.18299 1.67869 4.99607C2.02311 4.80915 2.30914 4.53064 2.50515 4.19132C2.70116 3.85199 2.79953 3.46508 2.78938 3.07334C2.77923 2.6816 2.66095 2.3003 2.44763 1.97158C3.30396 1.12907 4.36069 0.518431 5.51825 0.197205C5.69604 0.546748 5.96708 0.840277 6.30137 1.0453C6.63567 1.25032 7.02018 1.35884 7.41234 1.35884C7.80449 1.35884 8.189 1.25032 8.5233 1.0453C8.85759 0.840277 9.12864 0.546748 9.30642 0.197205C10.464 0.518431 11.5207 1.12907 12.377 1.97158C12.1635 2.30036 12.045 2.6818 12.0348 3.07372C12.0246 3.46564 12.123 3.85275 12.3191 4.19221C12.5152 4.53168 12.8014 4.81027 13.1461 4.99717C13.4907 5.18406 13.8803 5.27197 14.2718 5.25116C14.4178 5.81783 14.4957 6.41141 14.4957 7.02412C14.4957 7.63683 14.4178 8.23041 14.2718 8.79779C13.8804 8.77708 13.491 8.86502 13.1464 9.05188C12.8019 9.23874 12.5158 9.51724 12.3197 9.85659C12.1236 10.1959 12.0251 10.5829 12.0353 10.9747C12.0454 11.3665 12.1637 11.7479 12.377 12.0767C11.5207 12.9192 10.464 13.5298 9.30642 13.851C9.12864 13.5015 8.85759 13.208 8.5233 13.0029C8.189 12.7979 7.80449 12.6894 7.41234 12.6894C7.02018 12.6894 6.63567 12.7979 6.30137 13.0029C5.96708 13.208 5.69604 13.5015 5.51825 13.851C4.36069 13.5298 3.30396 12.9192 2.44763 12.0767C2.6612 11.7479 2.77965 11.3664 2.78987 10.9745C2.8001 10.5826 2.70171 10.1955 2.50558 9.85603C2.30945 9.51656 2.02323 9.23797 1.6786 9.05108C1.33396 8.86418 0.944336 8.77628 0.552837 8.79708C0.407629 8.23112 0.329712 7.63754 0.329712 7.02412ZM3.73255 9.14912C4.1788 9.92191 4.3063 10.8109 4.13205 11.6453C4.42105 11.8507 4.72846 12.0285 5.05075 12.1765C5.70006 11.5949 6.54131 11.2735 7.41304 11.2741C8.30554 11.2741 9.13996 11.6077 9.77534 12.1765C10.0976 12.0285 10.405 11.8507 10.694 11.6453C10.5151 10.7924 10.6574 9.90355 11.0935 9.14912C11.5289 8.3943 12.2276 7.82677 13.0556 7.55537C13.0884 7.20196 13.0884 6.84628 13.0556 6.49287C12.2273 6.22162 11.5284 5.65408 11.0928 4.89912C10.6567 4.1447 10.5144 3.25581 10.6933 2.40295C10.4044 2.19748 10.0968 2.01962 9.77463 1.8717C9.1255 2.4532 8.28454 2.77455 7.41304 2.77412C6.54131 2.77473 5.70006 2.45336 5.05075 1.8717C4.72855 2.01962 4.42097 2.19749 4.13205 2.40295C4.31095 3.25581 4.16868 4.1447 3.73255 4.89912C3.29718 5.65394 2.59849 6.22147 1.77046 6.49287C1.7377 6.84628 1.7377 7.20196 1.77046 7.55537C2.59875 7.82662 3.29772 8.39417 3.73325 9.14912H3.73255ZM7.41304 9.14912C6.84946 9.14912 6.30896 8.92524 5.91044 8.52672C5.51193 8.12821 5.28804 7.58771 5.28804 7.02412C5.28804 6.46054 5.51193 5.92003 5.91044 5.52152C6.30896 5.123 6.84946 4.89912 7.41304 4.89912C7.97663 4.89912 8.51713 5.123 8.91565 5.52152C9.31416 5.92003 9.53804 6.46054 9.53804 7.02412C9.53804 7.58771 9.31416 8.12821 8.91565 8.52672C8.51713 8.92524 7.97663 9.14912 7.41304 9.14912ZM7.41304 7.73246C7.60091 7.73246 7.78107 7.65783 7.91391 7.52499C8.04675 7.39215 8.12138 7.21198 8.12138 7.02412C8.12138 6.83626 8.04675 6.65609 7.91391 6.52325C7.78107 6.39042 7.60091 6.31579 7.41304 6.31579C7.22518 6.31579 7.04502 6.39042 6.91218 6.52325C6.77934 6.65609 6.70471 6.83626 6.70471 7.02412C6.70471 7.21198 6.77934 7.39215 6.91218 7.52499C7.04502 7.65783 7.22518 7.73246 7.41304 7.73246Z" fill="#1F4173"/>
</svg>
