<svg width="18" height="15" viewBox="0 0 18 15" fill="none" xmlns="http://www.w3.org/2000/svg">
<path d="M0.474121 7.88888C1.20523 3.90666 4.69512 0.888878 8.8889 0.888878C13.0827 0.888878 16.5718 3.90666 17.3037 7.88888C16.5726 11.8711 13.0827 14.8889 8.8889 14.8889C4.69512 14.8889 1.20601 11.8711 0.474121 7.88888ZM8.8889 11.7778C9.9203 11.7778 10.9094 11.368 11.6388 10.6387C12.3681 9.90943 12.7778 8.92028 12.7778 7.88888C12.7778 6.85748 12.3681 5.86833 11.6388 5.13902C10.9094 4.40971 9.9203 3.99999 8.8889 3.99999C7.8575 3.99999 6.86835 4.40971 6.13904 5.13902C5.40973 5.86833 5.00001 6.85748 5.00001 7.88888C5.00001 8.92028 5.40973 9.90943 6.13904 10.6387C6.86835 11.368 7.8575 11.7778 8.8889 11.7778ZM8.8889 10.2222C8.27006 10.2222 7.67657 9.97638 7.23898 9.5388C6.8014 9.10121 6.55557 8.50772 6.55557 7.88888C6.55557 7.27004 6.8014 6.67655 7.23898 6.23896C7.67657 5.80138 8.27006 5.55555 8.8889 5.55555C9.50774 5.55555 10.1012 5.80138 10.5388 6.23896C10.9764 6.67655 11.2222 7.27004 11.2222 7.88888C11.2222 8.50772 10.9764 9.10121 10.5388 9.5388C10.1012 9.97638 9.50774 10.2222 8.8889 10.2222Z" fill="#081125"/>
</svg>
