<svg width="20" height="19" viewBox="0 0 20 19" fill="none" xmlns="http://www.w3.org/2000/svg">
<path d="M15.2064 13.8964C15.6973 14.3818 15.7017 15.1733 15.2163 15.6641C13.5566 17.3425 11.343 18.2668 8.98319 18.2668C6.64151 18.2668 4.43995 17.3548 2.78413 15.699C1.12831 14.0432 0.216431 11.8417 0.216431 9.5C0.216431 7.15828 1.12834 4.95675 2.78416 3.30093C4.43998 1.64511 6.64151 0.7332 8.98319 0.7332C11.343 0.7332 13.5566 1.6575 15.2163 3.33582C15.7017 3.82668 15.6973 4.61816 15.2064 5.10355C14.7155 5.58894 13.924 5.58453 13.4387 5.09367C12.2523 3.89394 10.67 3.2332 8.98323 3.2332C5.52772 3.2332 2.71643 6.04449 2.71643 9.5C2.71643 12.9555 5.52772 15.7668 8.98323 15.7668C10.67 15.7668 12.2523 15.106 13.4387 13.9063C13.9241 13.4155 14.7155 13.4111 15.2064 13.8964ZM19.4174 8.61613L16.9632 6.16199C16.4751 5.67382 15.6836 5.67382 15.1955 6.16199C14.7073 6.65015 14.7073 7.4416 15.1955 7.92976L15.5157 8.25H8.98319C8.29284 8.25 7.73319 8.80964 7.73319 9.5C7.73319 10.1903 8.29284 10.75 8.98319 10.75H15.5157L15.1955 11.0702C14.7073 11.5584 14.7073 12.3498 15.1955 12.838C15.4396 13.0821 15.7594 13.2041 16.0793 13.2041C16.3992 13.2041 16.7191 13.0821 16.9632 12.838L19.4173 10.3839C19.9055 9.89574 19.9055 9.10425 19.4174 8.61613Z" fill="#081125"/>
</svg>
