<svg width="15" height="16" viewBox="0 0 15 16" fill="none" xmlns="http://www.w3.org/2000/svg">
<path d="M7.41305 0.940792C11.3252 0.940792 14.4964 4.112 14.4964 8.02413C14.4964 11.9363 11.3252 15.1075 7.41305 15.1075C3.50092 15.1075 0.329712 11.9363 0.329712 8.02413C0.329712 4.112 3.50092 0.940792 7.41305 0.940792ZM7.41305 2.35746C4.28363 2.35746 1.74638 4.89471 1.74638 8.02413C1.74638 11.1535 4.28363 13.6908 7.41305 13.6908C10.5425 13.6908 13.0797 11.1535 13.0797 8.02413C13.0797 4.89471 10.5425 2.35746 7.41305 2.35746ZM7.41305 3.06579C8.13413 3.06579 8.81909 3.2195 9.43746 3.49646L8.33034 4.60288C8.0378 4.52496 7.73038 4.48246 7.41305 4.48246C5.45734 4.48246 3.87138 6.06842 3.87138 8.02413C3.87138 9.00163 4.26805 9.88704 4.90838 10.5288L3.9068 11.5304L3.7963 11.4163C2.96471 10.5295 2.45471 9.33596 2.45471 8.02413C2.45471 5.28571 4.67463 3.06579 7.41305 3.06579ZM11.9407 6.00042C12.217 6.61808 12.3714 7.30375 12.3714 8.02413C12.3714 9.39333 11.816 10.6329 10.9193 11.5304L9.91771 10.5288C10.558 9.88704 10.9547 9.00163 10.9547 8.02413C10.9547 7.70679 10.9129 7.39938 10.8343 7.10683L11.9407 6.00042ZM10.4178 4.01708L11.4201 5.01867L8.78225 7.65792C8.81342 7.77479 8.82971 7.89733 8.82971 8.02413C8.82971 8.80683 8.19575 9.44079 7.41305 9.44079C6.63034 9.44079 5.99638 8.80683 5.99638 8.02413C5.99638 7.24142 6.63034 6.60746 7.41305 6.60746C7.53984 6.60746 7.66238 6.62375 7.77925 6.65492L10.4185 4.01708H10.4178Z" fill="#1F4173"/>
</svg>
