<svg width="15" height="16" viewBox="0 0 15 16" fill="none" xmlns="http://www.w3.org/2000/svg">
<path d="M12.0797 0.940796C12.4707 0.940796 12.7881 1.25813 12.7881 1.64913V4.31034L11.3714 5.727V2.35746H1.45472V13.6908H11.3714V11.7372L12.7881 10.3205V14.3991C12.7881 14.7901 12.4707 15.1075 12.0797 15.1075H0.746389C0.355389 15.1075 0.0380554 14.7901 0.0380554 14.3991V1.64913C0.0380554 1.25813 0.355389 0.940796 0.746389 0.940796H12.0797ZM13.3391 5.76313C14.1411 5.71761 14.3729 5.92454 14.3407 6.76471L8.83131 12.2741L7.82831 12.2727L7.82972 11.2725L13.3391 5.76313ZM7.12139 8.02413V9.4408H3.57972V8.02413H7.12139ZM9.24639 5.89782V6.60746H3.57972V5.89782H9.24639Z" fill="#1F4173"/>
</svg>
