<svg width="51" height="50" viewBox="0 0 51 50" fill="none" xmlns="http://www.w3.org/2000/svg">
<path d="M34.1325 42.3672C34.2498 42.3673 34.3656 42.341 34.4713 42.2902C34.5771 42.2394 34.67 42.1654 34.7432 42.0737C34.8164 41.9821 34.8679 41.8751 34.8941 41.7607C34.9203 41.6464 34.9203 41.5276 34.8942 41.4133C34.6701 40.4229 34.7004 39.3918 34.9824 38.4163C35.2644 37.4408 35.7889 36.5526 36.5069 35.8346C37.225 35.1165 38.1132 34.5921 39.0887 34.3101C40.0642 34.0281 41.0952 33.9977 42.0856 34.2219C42.2 34.2479 42.3188 34.2479 42.4331 34.2217C42.5475 34.1956 42.6544 34.144 42.7461 34.0708C42.8377 33.9976 42.9117 33.9047 42.9625 33.799C43.0133 33.6933 43.0397 33.5774 43.0396 33.4602V9.19766C43.0396 7.37989 42.3174 5.63657 41.0321 4.35121C39.7467 3.06586 38.0034 2.34375 36.1856 2.34375H9.87002C8.05225 2.34375 6.30893 3.06586 5.02358 4.35121C3.73822 5.63657 3.01611 7.37989 3.01611 9.19766V35.5133C3.01611 37.3311 3.73822 39.0744 5.02358 40.3597C6.30893 41.6451 8.05225 42.3672 9.87002 42.3672H34.1325Z" fill="#EDF4FE"/>
<path d="M34.1326 42.3672C34.2498 42.3673 34.3657 42.341 34.4714 42.2902C34.5771 42.2394 34.67 42.1654 34.7432 42.0737C34.8164 41.9821 34.868 41.8751 34.8941 41.7607C34.9203 41.6464 34.9203 41.5276 34.8943 41.4133C34.6867 40.4958 34.6974 39.5425 34.9253 38.6299C35.1532 37.7173 35.592 36.871 36.2065 36.1588C36.821 35.4467 37.594 34.8886 38.4634 34.5296C39.3328 34.1705 40.2743 34.0204 41.2122 34.0914C41.3609 34.1026 41.5096 34.071 41.6409 34.0004C41.7722 33.9298 41.8805 33.8231 41.9531 33.6929C42.0258 33.5627 42.0596 33.4145 42.0507 33.2657C42.0418 33.1169 41.9905 32.9737 41.9029 32.8531L37.0247 26.1344C36.3891 25.2587 35.5551 24.546 34.591 24.0546C33.627 23.5631 32.5603 23.3069 31.4783 23.3069C30.3962 23.3069 29.3295 23.5631 28.3655 24.0546C27.4014 24.546 26.5675 25.2587 25.9318 26.1344L18.5029 36.3672C18.4061 36.5007 18.354 36.6613 18.354 36.8262C18.354 36.991 18.4061 37.1517 18.5029 37.2852L21.9583 42.0453C22.0308 42.145 22.1259 42.2262 22.2357 42.2821C22.3456 42.338 22.4671 42.3672 22.5904 42.3672H34.1326Z" fill="#00912C"/>
<path d="M20.1005 34.1672L18.5029 36.3672C18.4061 36.5007 18.354 36.6613 18.354 36.8262C18.354 36.991 18.4061 37.1517 18.5029 37.2852L21.9583 42.0453C22.0308 42.145 22.1259 42.2262 22.2357 42.2821C22.3456 42.3381 22.4671 42.3672 22.5904 42.3672H24.8005C24.9271 42.0089 24.9648 41.6253 24.9102 41.2492C24.8556 40.8732 24.7105 40.5161 24.4872 40.2086L20.1005 34.1672Z" fill="#008127"/>
<path d="M3.16533 34.2141C3.06848 34.3474 3.01625 34.5079 3.01611 34.6727V35.5133C3.01611 37.3311 3.73822 39.0744 5.02358 40.3597C6.30893 41.6451 8.05225 42.3672 9.87002 42.3672H22.5903C22.7345 42.3674 22.8759 42.3276 22.9989 42.2524C23.1219 42.1772 23.2217 42.0694 23.2872 41.9409C23.3527 41.8125 23.3814 41.6684 23.3701 41.5247C23.3588 41.381 23.3079 41.2432 23.2231 41.1266L16.231 31.4961C15.5952 30.6206 14.7612 29.908 13.7971 29.4167C12.8331 28.9254 11.7665 28.6692 10.6845 28.6692C9.60247 28.6692 8.53583 28.9254 7.57181 29.4167C6.60779 29.908 5.77377 30.6206 5.13799 31.4961L3.16533 34.2141ZM38.6005 22.3555V20.793C38.6005 20.6894 38.5593 20.59 38.4861 20.5168C38.4128 20.4435 38.3135 20.4023 38.2099 20.4023C38.1063 20.4023 38.0069 20.4435 37.9336 20.5168C37.8604 20.59 37.8192 20.6894 37.8192 20.793V22.3555C37.8192 22.4591 37.8604 22.5584 37.9336 22.6317C38.0069 22.7049 38.1063 22.7461 38.2099 22.7461C38.3135 22.7461 38.4128 22.7049 38.4861 22.6317C38.5593 22.5584 38.6005 22.4591 38.6005 22.3555ZM38.6005 19.2305V17.668C38.6005 17.5644 38.5593 17.465 38.4861 17.3918C38.4128 17.3185 38.3135 17.2773 38.2099 17.2773C38.1063 17.2773 38.0069 17.3185 37.9336 17.3918C37.8604 17.465 37.8192 17.5644 37.8192 17.668V19.2305C37.8192 19.3341 37.8604 19.4334 37.9336 19.5067C38.0069 19.5799 38.1063 19.6211 38.2099 19.6211C38.3135 19.6211 38.4128 19.5799 38.4861 19.5067C38.5593 19.4334 38.6005 19.3341 38.6005 19.2305ZM38.6005 16.1055V14.543C38.6005 14.4394 38.5593 14.34 38.4861 14.2668C38.4128 14.1935 38.3135 14.1523 38.2099 14.1523C38.1063 14.1523 38.0069 14.1935 37.9336 14.2668C37.8604 14.34 37.8192 14.4394 37.8192 14.543V16.1055C37.8192 16.2091 37.8604 16.3084 37.9336 16.3817C38.0069 16.4549 38.1063 16.4961 38.2099 16.4961C38.3135 16.4961 38.4128 16.4549 38.4861 16.3817C38.5593 16.3084 38.6005 16.2091 38.6005 16.1055ZM38.6005 12.9805V11.5109L38.5997 11.4094C38.5916 11.3099 38.5458 11.2173 38.4717 11.1505C38.3976 11.0836 38.3008 11.0476 38.201 11.0498C38.1012 11.052 38.006 11.0922 37.9349 11.1623C37.8638 11.2323 37.8222 11.3268 37.8185 11.4266L37.8192 11.5109V12.9805C37.8192 13.0841 37.8604 13.1834 37.9336 13.2567C38.0069 13.3299 38.1063 13.3711 38.2099 13.3711C38.3135 13.3711 38.4128 13.3299 38.4861 13.2567C38.5593 13.1834 38.6005 13.0841 38.6005 12.9805ZM38.2614 9.74922C38.0487 9.22133 37.7428 8.736 37.3583 8.31641C37.3236 8.27855 37.2818 8.24789 37.2353 8.22619C37.1888 8.20448 37.1384 8.19215 37.0871 8.1899C37.0359 8.18765 36.9846 8.19553 36.9364 8.21308C36.8881 8.23063 36.8438 8.25751 36.806 8.29219C36.7681 8.32687 36.7374 8.36866 36.7157 8.41519C36.694 8.46171 36.6817 8.51205 36.6795 8.56334C36.6772 8.61463 36.6851 8.66587 36.7026 8.71411C36.7202 8.76236 36.7471 8.80667 36.7817 8.84453C37.1005 9.19219 37.3575 9.5961 37.5364 10.0406C37.5751 10.1368 37.6503 10.2136 37.7456 10.2543C37.7928 10.2744 37.8435 10.285 37.8948 10.2856C37.9461 10.2861 37.997 10.2766 38.0446 10.2574C38.0922 10.2383 38.1356 10.21 38.1723 10.1741C38.2089 10.1382 38.2381 10.0954 38.2583 10.0482C38.2784 10.001 38.289 9.95034 38.2896 9.89903C38.2901 9.84773 38.2806 9.79682 38.2614 9.74922ZM36.0091 7.29219C35.5011 7.03439 34.9505 6.87106 34.3841 6.81016C34.2824 6.80154 34.1813 6.83307 34.1026 6.898C34.0238 6.96293 33.9736 7.0561 33.9627 7.15758C33.9518 7.25906 33.981 7.36078 34.0441 7.44098C34.1073 7.52119 34.1993 7.5735 34.3005 7.58672C34.7727 7.63772 35.2317 7.77404 35.6552 7.98906C35.7467 8.0293 35.8503 8.03296 35.9444 7.99928C36.0386 7.9656 36.1163 7.89714 36.1616 7.80796C36.2069 7.71878 36.2163 7.61564 36.188 7.51972C36.1596 7.42381 36.0956 7.34239 36.0091 7.29219ZM29.656 6.78281H28.0935C27.9899 6.78281 27.8905 6.82397 27.8172 6.89723C27.744 6.97048 27.7028 7.06984 27.7028 7.17344C27.7028 7.27704 27.744 7.3764 27.8172 7.44965C27.8905 7.52291 27.9899 7.56406 28.0935 7.56406H29.656C29.7596 7.56406 29.8589 7.52291 29.9322 7.44965C30.0054 7.3764 30.0466 7.27704 30.0466 7.17344C30.0466 7.06984 30.0054 6.97048 29.9322 6.89723C29.8589 6.82397 29.7596 6.78281 29.656 6.78281ZM32.781 6.78281H31.2185C31.1149 6.78281 31.0155 6.82397 30.9422 6.89723C30.869 6.97048 30.8278 7.06984 30.8278 7.17344C30.8278 7.27704 30.869 7.3764 30.9422 7.44965C31.0155 7.52291 31.1149 7.56406 31.2185 7.56406H32.781C32.8846 7.56406 32.9839 7.52291 33.0572 7.44965C33.1304 7.3764 33.1716 7.27704 33.1716 7.17344C33.1716 7.06984 33.1304 6.97048 33.0572 6.89723C32.9839 6.82397 32.8846 6.78281 32.781 6.78281ZM26.531 6.78281H24.9685C24.8649 6.78281 24.7655 6.82397 24.6922 6.89723C24.619 6.97048 24.5778 7.06984 24.5778 7.17344C24.5778 7.27704 24.619 7.3764 24.6922 7.44965C24.7655 7.52291 24.8649 7.56406 24.9685 7.56406H26.531C26.6346 7.56406 26.7339 7.52291 26.8072 7.44965C26.8804 7.3764 26.9216 7.27704 26.9216 7.17344C26.9216 7.06984 26.8804 6.97048 26.8072 6.89723C26.7339 6.82397 26.6346 6.78281 26.531 6.78281ZM22.8028 7.0336C22.7028 6.925 22.6372 7.04141 22.6372 7.17344C22.6372 7.27704 22.6784 7.3764 22.7516 7.44965C22.8249 7.52291 22.9242 7.56406 23.0278 7.56406H23.406C23.5096 7.56406 23.6089 7.52291 23.6822 7.44965C23.7554 7.3764 23.7966 7.27704 23.7966 7.17344C23.7966 7.06984 23.7554 6.97048 23.6822 6.89723C23.6089 6.82397 23.5096 6.78281 23.406 6.78281H23.0317C22.8356 6.78281 22.7872 6.89453 22.8028 7.0336Z" fill="#00BF4B"/>
<path d="M14.6051 18.3289C17.033 18.3289 19.0012 16.3607 19.0012 13.9328C19.0012 11.5049 17.033 9.53672 14.6051 9.53672C12.1772 9.53672 10.209 11.5049 10.209 13.9328C10.209 16.3607 12.1772 18.3289 14.6051 18.3289Z" fill="#F8BC38"/>
<path d="M40.7567 47.6563C44.939 47.6563 48.3294 44.2659 48.3294 40.0836C48.3294 35.9013 44.939 32.5109 40.7567 32.5109C36.5745 32.5109 33.1841 35.9013 33.1841 40.0836C33.1841 44.2659 36.5745 47.6563 40.7567 47.6563Z" fill="#55A1FF"/>
<path d="M39.9756 37.3492V42.818C39.9756 43.0252 40.0579 43.2239 40.2044 43.3704C40.3509 43.5169 40.5496 43.5992 40.7568 43.5992C40.964 43.5992 41.1628 43.5169 41.3093 43.3704C41.4558 43.2239 41.5381 43.0252 41.5381 42.818V37.3492C41.5291 37.1481 41.4428 36.9581 41.2973 36.819C41.1518 36.6798 40.9582 36.6021 40.7568 36.6021C40.5555 36.6021 40.3619 36.6798 40.2164 36.819C40.0708 36.9581 39.9846 37.1481 39.9756 37.3492Z" fill="#EEF6FF"/>
<path d="M38.0224 40.8648H43.4903C43.6915 40.8559 43.8815 40.7698 44.0207 40.6243C44.16 40.4789 44.2377 40.2853 44.2378 40.084C44.2379 39.8826 44.1604 39.689 44.0213 39.5434C43.8822 39.3978 43.6923 39.3114 43.4911 39.3023H38.0216C37.8204 39.3114 37.6306 39.3978 37.4915 39.5434C37.3524 39.689 37.2748 39.8826 37.2749 40.084C37.275 40.2853 37.3528 40.4789 37.492 40.6243C37.6312 40.7698 37.8212 40.8559 38.0224 40.8648Z" fill="#EEF6FF"/>
</svg>
