<svg width="13" height="18" viewBox="0 0 13 18" fill="none" xmlns="http://www.w3.org/2000/svg">
<path d="M12.7124 16.9765L12.0801 5.83766C12.0726 5.70554 12.0148 5.58128 11.9186 5.49037C11.8225 5.39947 11.6951 5.34879 11.5628 5.34874H9.36041V3.52746C9.36041 1.87134 8.01319 0.524124 6.35742 0.524124C4.7013 0.524124 3.35408 1.87134 3.35408 3.52746V5.34874H1.26329C1.13095 5.34879 1.00364 5.39947 0.907468 5.49037C0.811292 5.58128 0.753534 5.70554 0.746035 5.83766L0.113717 16.9765C0.109721 17.0469 0.120135 17.1174 0.144321 17.1836C0.168507 17.2498 0.205957 17.3105 0.254378 17.3617C0.302799 17.413 0.361174 17.4538 0.425928 17.4818C0.490682 17.5097 0.560454 17.5241 0.630974 17.5241H12.1951C12.2656 17.5241 12.3354 17.5097 12.4002 17.4818C12.4649 17.4538 12.5233 17.413 12.5717 17.3617C12.6201 17.3105 12.6576 17.2498 12.6818 17.1836C12.706 17.1174 12.7164 17.0469 12.7124 16.9765V16.9765ZM4.39067 3.52746C4.39122 3.00601 4.59861 2.50608 4.96732 2.13736C5.33604 1.76865 5.83597 1.56126 6.35742 1.56071C6.8788 1.56135 7.37865 1.76878 7.74729 2.13749C8.11593 2.50619 8.32327 3.00607 8.32382 3.52746V5.34874H4.39067V3.52746ZM1.17967 16.4875L1.7529 6.38533H11.0732L11.6464 16.4875H1.17967Z" fill="#1F4173" stroke="#1F4173" stroke-width="0.2"/>
<path d="M5.77899 10.5496C6.0478 10.2802 6.19877 9.91509 6.19877 9.53447C6.19877 9.15385 6.0478 8.78877 5.77899 8.51931C5.50953 8.2505 5.14445 8.09953 4.76383 8.09953C4.38321 8.09953 4.01813 8.2505 3.74866 8.51931C3.47985 8.78877 3.32889 9.15385 3.32889 9.53447C3.32889 9.91509 3.47985 10.2802 3.74866 10.5496C4.01813 10.8184 4.38321 10.9694 4.76383 10.9694C5.14445 10.9694 5.50953 10.8184 5.77899 10.5496V10.5496ZM4.48188 9.25252C4.51895 9.21547 4.56295 9.18609 4.61138 9.16605C4.65981 9.146 4.71171 9.1357 4.76412 9.13571C4.81653 9.13573 4.86843 9.14607 4.91684 9.16614C4.96526 9.18621 5.00925 9.21562 5.0463 9.25269C5.08335 9.28977 5.11273 9.33377 5.13277 9.3822C5.15281 9.43063 5.16312 9.48253 5.16311 9.53494C5.16309 9.58735 5.15275 9.63925 5.13268 9.68766C5.11261 9.73608 5.0832 9.78007 5.04612 9.81712C4.97125 9.89194 4.86973 9.93396 4.76388 9.93392C4.65803 9.93389 4.55653 9.89181 4.4817 9.81694C4.40688 9.74207 4.36486 9.64055 4.36489 9.5347C4.36493 9.42885 4.40701 9.32734 4.48188 9.25252V9.25252ZM7.04708 11.8177C6.77827 12.0872 6.62731 12.4523 6.62731 12.8329C6.62731 13.2135 6.77827 13.5786 7.04708 13.8481C7.31655 14.1169 7.68163 14.2678 8.06225 14.2678C8.44287 14.2678 8.80795 14.1169 9.07741 13.8481C9.34622 13.5786 9.49719 13.2135 9.49719 12.8329C9.49719 12.4523 9.34622 12.0872 9.07741 11.8177C8.80795 11.5489 8.44287 11.398 8.06225 11.398C7.68163 11.398 7.31655 11.5489 7.04708 11.8177ZM8.3442 13.1148C8.30746 13.1533 8.26342 13.184 8.21465 13.2052C8.16588 13.2263 8.11337 13.2376 8.06021 13.2382C8.00704 13.2388 7.9543 13.2287 7.90506 13.2087C7.85583 13.1886 7.8111 13.1589 7.7735 13.1213C7.73591 13.0837 7.7062 13.039 7.68614 12.9897C7.66607 12.9405 7.65604 12.8878 7.65664 12.8346C7.65724 12.7814 7.66846 12.7289 7.68963 12.6801C7.71081 12.6314 7.74151 12.5873 7.77995 12.5506C7.85534 12.4785 7.95593 12.4389 8.06021 12.44C8.16448 12.4412 8.26416 12.4832 8.3379 12.5569C8.41164 12.6306 8.45358 12.7303 8.45476 12.8346C8.45594 12.9389 8.41625 13.0395 8.3442 13.1148ZM8.42851 9.16821C8.33131 9.07105 8.19951 9.01646 8.06207 9.01646C7.92464 9.01646 7.79283 9.07105 7.69564 9.16821L4.39757 12.4663C4.34806 12.5141 4.30858 12.5713 4.28142 12.6345C4.25425 12.6978 4.23996 12.7658 4.23936 12.8346C4.23876 12.9034 4.25187 12.9717 4.27793 13.0353C4.30399 13.099 4.34248 13.1569 4.39114 13.2056C4.43981 13.2542 4.49767 13.2927 4.56137 13.3188C4.62507 13.3448 4.69332 13.358 4.76213 13.3574C4.83095 13.3568 4.89896 13.3425 4.9622 13.3153C5.02543 13.2881 5.08262 13.2487 5.13043 13.1992L8.42851 9.90108C8.52567 9.80388 8.58026 9.67208 8.58026 9.53465C8.58026 9.39721 8.52567 9.26541 8.42851 9.16821V9.16821Z" fill="#1F4173"/>
</svg>
