<svg width="21" height="21" viewBox="0 0 21 21" fill="none" xmlns="http://www.w3.org/2000/svg">
<g clip-path="url(#clip0_1_166)">
<path d="M1.71094 4.28906V12.1016C1.71094 12.4252 1.97328 12.6875 2.29688 12.6875H2.88281V3.70312H2.29688C1.97328 3.70312 1.71094 3.96547 1.71094 4.28906ZM10.1094 4.48438H15.5781C15.9017 4.48438 16.1641 4.22203 16.1641 3.89844V1.08594C16.1641 0.762344 15.9017 0.5 15.5781 0.5H10.1094C9.78578 0.5 9.52344 0.762344 9.52344 1.08594V3.89844C9.52344 4.22203 9.78578 4.48438 10.1094 4.48438ZM9.91406 8H15.7734V9.95312H9.91406V8Z" fill="#1F4173"/>
<path d="M17.5312 2.92188H17.3359V3.89844C17.3359 4.8677 16.5474 5.65625 15.5781 5.65625H10.1094C9.14012 5.65625 8.35156 4.8677 8.35156 3.89844V2.92188H8.15625C7.18699 2.92188 6.39844 3.71043 6.39844 4.67969V11.2729C6.39844 11.9638 6.66746 12.6133 7.15602 13.1018C7.43996 13.3858 7.59969 13.778 7.59434 14.1779C7.5802 15.2318 7.57438 17.0289 7.57195 18.3509C7.5709 18.9245 7.79348 19.464 8.19863 19.8698C8.60426 20.2762 9.14414 20.5 9.71875 20.5H15.9688C16.5426 20.5 17.0821 20.2765 17.4879 19.8707C17.8936 19.4648 18.117 18.9253 18.1168 18.3514L18.1158 14.0809C18.1157 13.7177 18.2571 13.3763 18.5139 13.1194L18.5286 13.1047C19.019 12.6143 19.2891 11.9638 19.2891 11.2729V4.67969C19.2891 3.71043 18.5005 2.92188 17.5312 2.92188ZM10.5 18.1562C10.1764 18.1562 9.91406 17.8939 9.91406 17.5703C9.91406 17.2467 10.1764 16.9844 10.5 16.9844C10.8236 16.9844 11.0859 17.2467 11.0859 17.5703C11.0859 17.8939 10.8236 18.1562 10.5 18.1562ZM10.5 15.8125C10.1764 15.8125 9.91406 15.5502 9.91406 15.2266C9.91406 14.903 10.1764 14.6406 10.5 14.6406C10.8236 14.6406 11.0859 14.903 11.0859 15.2266C11.0859 15.5502 10.8236 15.8125 10.5 15.8125ZM10.5 13.4688C10.1764 13.4688 9.91406 13.2064 9.91406 12.8828C9.91406 12.5592 10.1764 12.2969 10.5 12.2969C10.8236 12.2969 11.0859 12.5592 11.0859 12.8828C11.0859 13.2064 10.8236 13.4688 10.5 13.4688ZM12.8438 18.1562C12.5202 18.1562 12.2578 17.8939 12.2578 17.5703C12.2578 17.2467 12.5202 16.9844 12.8438 16.9844C13.1673 16.9844 13.4297 17.2467 13.4297 17.5703C13.4297 17.8939 13.1673 18.1562 12.8438 18.1562ZM12.8438 15.8125C12.5202 15.8125 12.2578 15.5502 12.2578 15.2266C12.2578 14.903 12.5202 14.6406 12.8438 14.6406C13.1673 14.6406 13.4297 14.903 13.4297 15.2266C13.4297 15.5502 13.1673 15.8125 12.8438 15.8125ZM12.8438 13.4688C12.5202 13.4688 12.2578 13.2064 12.2578 12.8828C12.2578 12.5592 12.5202 12.2969 12.8438 12.2969C13.1673 12.2969 13.4297 12.5592 13.4297 12.8828C13.4297 13.2064 13.1673 13.4688 12.8438 13.4688ZM15.1875 18.1562C14.8639 18.1562 14.6016 17.8939 14.6016 17.5703C14.6016 17.2467 14.8639 16.9844 15.1875 16.9844C15.5111 16.9844 15.7734 17.2467 15.7734 17.5703C15.7734 17.8939 15.5111 18.1562 15.1875 18.1562ZM15.1875 15.8125C14.8639 15.8125 14.6016 15.5502 14.6016 15.2266C14.6016 14.903 14.8639 14.6406 15.1875 14.6406C15.5111 14.6406 15.7734 14.903 15.7734 15.2266C15.7734 15.5502 15.5111 15.8125 15.1875 15.8125ZM15.1875 13.4688C14.8639 13.4688 14.6016 13.2064 14.6016 12.8828C14.6016 12.5592 14.8639 12.2969 15.1875 12.2969C15.5111 12.2969 15.7734 12.5592 15.7734 12.8828C15.7734 13.2064 15.5111 13.4688 15.1875 13.4688ZM16.9453 10.5391C16.9453 10.8627 16.683 11.125 16.3594 11.125H9.32812C9.00453 11.125 8.74219 10.8627 8.74219 10.5391V7.41406C8.74219 7.09047 9.00453 6.82812 9.32812 6.82812H16.3594C16.683 6.82812 16.9453 7.09047 16.9453 7.41406V10.5391ZM5.22656 4.67969C5.22643 4.34697 5.28324 4.01668 5.39453 3.70312H4.05469V12.6875H5.50098C5.32102 12.2441 5.22656 11.7658 5.22656 11.2729V4.67969Z" fill="#1F4173"/>
</g>
<defs>
<clipPath id="clip0_1_166">
<rect width="20" height="20" fill="white" transform="translate(0.5 0.5)"/>
</clipPath>
</defs>
</svg>
