<svg width="20" height="20" viewBox="0 0 20 20" fill="none" xmlns="http://www.w3.org/2000/svg">
<path d="M16.4263 4.54688H13.5435V3.33203C13.5435 2.16406 12.5942 1.21094 11.4224 1.21094H8.92236C7.75439 1.21094 6.80127 2.16016 6.80127 3.33203V4.54688H3.91846C3.66846 4.54688 3.46533 4.75 3.46533 5C3.46533 5.25 3.66846 5.45313 3.91846 5.45313H4.32471L5.04346 17.668C5.12549 18.3086 5.67236 18.793 6.3208 18.793H14.02C14.6685 18.793 15.2153 18.3086 15.2974 17.6367L16.0161 5.45313H16.4224C16.6724 5.45313 16.8755 5.25 16.8755 5C16.8755 4.75 16.6763 4.54688 16.4263 4.54688ZM7.70752 3.33203C7.70752 2.66016 8.25439 2.11719 8.92236 2.11719H11.4224C12.0942 2.11719 12.6372 2.66406 12.6372 3.33203V4.54688H7.70752V3.33203ZM14.3989 17.5508C14.3755 17.7422 14.2114 17.8867 14.02 17.8867H6.32471C6.1333 17.8867 5.96924 17.7422 5.94971 17.582L5.23486 5.45313H15.1138L14.3989 17.5508Z" fill="#8FA0B9"/>
<path d="M8.92205 15.4531C8.94159 15.4531 8.96112 15.4531 8.98065 15.4492C9.22674 15.418 9.40252 15.1914 9.37127 14.9453L8.53924 8.27733C8.50799 8.03124 8.28143 7.85546 8.03534 7.88671C7.78924 7.91796 7.61346 8.14452 7.64471 8.39061L8.47674 15.0586C8.50018 15.2851 8.69549 15.4531 8.92205 15.4531Z" fill="#8FA0B9"/>
<path d="M11.3677 15.4492C11.3873 15.4531 11.4068 15.4531 11.4263 15.4531C11.649 15.4531 11.8443 15.2852 11.8756 15.0586L12.7076 8.39062C12.7388 8.14453 12.5631 7.91796 12.317 7.88671C12.0709 7.85937 11.8443 8.03125 11.8131 8.27734L10.981 14.9453C10.942 15.1953 11.1177 15.418 11.3677 15.4492Z" fill="#8FA0B9"/>
</svg>
