<svg width="19" height="18" viewBox="0 0 19 18" fill="none" xmlns="http://www.w3.org/2000/svg">
<mask id="path-1-outside-1_1_81" maskUnits="userSpaceOnUse" x="-0.0869446" y="-0.475876" width="19" height="19" fill="black">
<rect fill="white" x="-0.0869446" y="-0.475876" width="19" height="19"/>
<path d="M6.29628 17.5241H12.5296C12.6785 17.5242 12.8258 17.4949 12.9634 17.438C13.1009 17.381 13.2259 17.2976 13.3311 17.1923C13.4364 17.0871 13.5199 16.9621 13.5769 16.8246C13.6339 16.6871 13.6632 16.5397 13.6632 16.3909V12.6887L16.1588 12.0057C16.3371 11.9558 16.4943 11.849 16.6064 11.7015C16.7184 11.5541 16.7793 11.3741 16.7797 11.1889V6.31393L16.9327 6.27109C17.1315 6.21543 17.3147 6.11466 17.4682 5.97664C17.6216 5.83861 17.7411 5.66705 17.8175 5.47529C17.8938 5.28353 17.9249 5.07675 17.9082 4.87103C17.8916 4.66531 17.8278 4.46619 17.7217 4.28917L16.7395 2.64559L16.7368 2.64759C16.7009 2.58541 16.6426 2.53931 16.5738 2.51876L9.71925 0.566385C9.51871 0.510037 9.30652 0.510037 9.10598 0.566385L2.25208 2.51842C2.1833 2.53901 2.12498 2.5851 2.08905 2.64725L2.08639 2.64559L1.10456 4.28917C0.998241 4.4662 0.934216 4.66538 0.917473 4.87121C0.90073 5.07703 0.931721 5.28394 1.00803 5.47583C1.08434 5.66771 1.20391 5.8394 1.35744 5.97751C1.51096 6.11562 1.69429 6.21643 1.89315 6.27209L2.04589 6.31526V11.1889C2.04643 11.3744 2.10767 11.5547 2.22026 11.7022C2.33285 11.8497 2.49061 11.9563 2.66945 12.0057L5.16304 12.6884V16.3906C5.163 16.5394 5.19227 16.6867 5.24918 16.8243C5.30609 16.9618 5.38953 17.0867 5.49473 17.192C5.59993 17.2972 5.72483 17.3807 5.8623 17.4377C5.99978 17.4947 6.14713 17.5241 6.29595 17.5241H6.29628ZM13.0964 16.3909C13.0964 16.7037 12.8427 16.9577 12.5296 16.9577H6.29628C6.14596 16.9577 6.0018 16.898 5.89551 16.7917C5.78921 16.6854 5.7295 16.5412 5.7295 16.3909V9.30756C5.7295 8.99445 5.98317 8.74078 6.29628 8.74078H12.5296C12.8427 8.74078 13.0964 8.99445 13.0964 9.30756V16.3909ZM16.2132 11.1889C16.2129 11.2501 16.1927 11.3096 16.1557 11.3583C16.1187 11.4071 16.0669 11.4426 16.008 11.4595L13.6628 12.1006V9.30723C13.6628 9.15838 13.6335 9.011 13.5765 8.87348C13.5196 8.73597 13.4361 8.61103 13.3308 8.50579C13.2255 8.40056 13.1006 8.31709 12.963 8.26016C12.8255 8.20323 12.6781 8.17395 12.5293 8.17399H9.696V5.79761L10.4537 7.06101C10.6053 7.31283 10.8352 7.50802 11.1084 7.61669C11.3815 7.72535 11.6827 7.7415 11.9658 7.66266L16.2132 6.47397V11.1889ZM17.2897 5.26702C17.2459 5.37765 17.1771 5.47662 17.0886 5.55614C17.0001 5.63565 16.8943 5.69353 16.7797 5.72523L11.8127 7.11679C11.6492 7.16241 11.4752 7.15311 11.3175 7.09031C11.1597 7.02751 11.0269 6.91468 10.9395 6.76915L9.84708 4.94727L16.3636 3.1224L17.2346 4.58004C17.2963 4.68221 17.3335 4.79735 17.343 4.91636C17.3526 5.03536 17.3343 5.15496 17.2897 5.26569V5.26702ZM9.26037 1.11192C9.35998 1.0837 9.46524 1.0837 9.56485 1.11192L15.4538 2.7887L9.41278 4.48042L3.37237 2.78903L9.26037 1.11192ZM1.53621 5.26536C1.49173 5.15448 1.47368 5.03477 1.48348 4.9157C1.49327 4.79664 1.53065 4.68149 1.59266 4.57937L2.4616 3.12207L8.97847 4.94694L7.88541 6.76915C7.79805 6.91477 7.66527 7.02766 7.5075 7.09047C7.34973 7.15327 7.17569 7.16252 7.01215 7.11679L2.04622 5.72556C1.9314 5.69365 1.82556 5.63549 1.73706 5.55569C1.64855 5.47588 1.57979 5.37661 1.53621 5.26569V5.26536ZM2.8192 11.4605C2.75988 11.4437 2.70766 11.4081 2.67044 11.3589C2.63323 11.3098 2.61307 11.2499 2.613 11.1882V6.47397L6.86008 7.66399C7.1432 7.74297 7.44441 7.72693 7.71753 7.61832C7.99066 7.5097 8.22062 7.31451 8.37218 7.06267L9.12955 5.79761V8.17399H6.29628C5.99573 8.17399 5.70749 8.29339 5.49496 8.50591C5.28244 8.71843 5.16304 9.00668 5.16304 9.30723V12.1006L2.8192 11.4605Z"/>
</mask>
<path d="M6.29628 17.5241H12.5296C12.6785 17.5242 12.8258 17.4949 12.9634 17.438C13.1009 17.381 13.2259 17.2976 13.3311 17.1923C13.4364 17.0871 13.5199 16.9621 13.5769 16.8246C13.6339 16.6871 13.6632 16.5397 13.6632 16.3909V12.6887L16.1588 12.0057C16.3371 11.9558 16.4943 11.849 16.6064 11.7015C16.7184 11.5541 16.7793 11.3741 16.7797 11.1889V6.31393L16.9327 6.27109C17.1315 6.21543 17.3147 6.11466 17.4682 5.97664C17.6216 5.83861 17.7411 5.66705 17.8175 5.47529C17.8938 5.28353 17.9249 5.07675 17.9082 4.87103C17.8916 4.66531 17.8278 4.46619 17.7217 4.28917L16.7395 2.64559L16.7368 2.64759C16.7009 2.58541 16.6426 2.53931 16.5738 2.51876L9.71925 0.566385C9.51871 0.510037 9.30652 0.510037 9.10598 0.566385L2.25208 2.51842C2.1833 2.53901 2.12498 2.5851 2.08905 2.64725L2.08639 2.64559L1.10456 4.28917C0.998241 4.4662 0.934216 4.66538 0.917473 4.87121C0.90073 5.07703 0.931721 5.28394 1.00803 5.47583C1.08434 5.66771 1.20391 5.8394 1.35744 5.97751C1.51096 6.11562 1.69429 6.21643 1.89315 6.27209L2.04589 6.31526V11.1889C2.04643 11.3744 2.10767 11.5547 2.22026 11.7022C2.33285 11.8497 2.49061 11.9563 2.66945 12.0057L5.16304 12.6884V16.3906C5.163 16.5394 5.19227 16.6867 5.24918 16.8243C5.30609 16.9618 5.38953 17.0867 5.49473 17.192C5.59993 17.2972 5.72483 17.3807 5.8623 17.4377C5.99978 17.4947 6.14713 17.5241 6.29595 17.5241H6.29628ZM13.0964 16.3909C13.0964 16.7037 12.8427 16.9577 12.5296 16.9577H6.29628C6.14596 16.9577 6.0018 16.898 5.89551 16.7917C5.78921 16.6854 5.7295 16.5412 5.7295 16.3909V9.30756C5.7295 8.99445 5.98317 8.74078 6.29628 8.74078H12.5296C12.8427 8.74078 13.0964 8.99445 13.0964 9.30756V16.3909ZM16.2132 11.1889C16.2129 11.2501 16.1927 11.3096 16.1557 11.3583C16.1187 11.4071 16.0669 11.4426 16.008 11.4595L13.6628 12.1006V9.30723C13.6628 9.15838 13.6335 9.011 13.5765 8.87348C13.5196 8.73597 13.4361 8.61103 13.3308 8.50579C13.2255 8.40056 13.1006 8.31709 12.963 8.26016C12.8255 8.20323 12.6781 8.17395 12.5293 8.17399H9.696V5.79761L10.4537 7.06101C10.6053 7.31283 10.8352 7.50802 11.1084 7.61669C11.3815 7.72535 11.6827 7.7415 11.9658 7.66266L16.2132 6.47397V11.1889ZM17.2897 5.26702C17.2459 5.37765 17.1771 5.47662 17.0886 5.55614C17.0001 5.63565 16.8943 5.69353 16.7797 5.72523L11.8127 7.11679C11.6492 7.16241 11.4752 7.15311 11.3175 7.09031C11.1597 7.02751 11.0269 6.91468 10.9395 6.76915L9.84708 4.94727L16.3636 3.1224L17.2346 4.58004C17.2963 4.68221 17.3335 4.79735 17.343 4.91636C17.3526 5.03536 17.3343 5.15496 17.2897 5.26569V5.26702ZM9.26037 1.11192C9.35998 1.0837 9.46524 1.0837 9.56485 1.11192L15.4538 2.7887L9.41278 4.48042L3.37237 2.78903L9.26037 1.11192ZM1.53621 5.26536C1.49173 5.15448 1.47368 5.03477 1.48348 4.9157C1.49327 4.79664 1.53065 4.68149 1.59266 4.57937L2.4616 3.12207L8.97847 4.94694L7.88541 6.76915C7.79805 6.91477 7.66527 7.02766 7.5075 7.09047C7.34973 7.15327 7.17569 7.16252 7.01215 7.11679L2.04622 5.72556C1.9314 5.69365 1.82556 5.63549 1.73706 5.55569C1.64855 5.47588 1.57979 5.37661 1.53621 5.26569V5.26536ZM2.8192 11.4605C2.75988 11.4437 2.70766 11.4081 2.67044 11.3589C2.63323 11.3098 2.61307 11.2499 2.613 11.1882V6.47397L6.86008 7.66399C7.1432 7.74297 7.44441 7.72693 7.71753 7.61832C7.99066 7.5097 8.22062 7.31451 8.37218 7.06267L9.12955 5.79761V8.17399H6.29628C5.99573 8.17399 5.70749 8.29339 5.49496 8.50591C5.28244 8.71843 5.16304 9.00668 5.16304 9.30723V12.1006L2.8192 11.4605Z" fill="#1F4173"/>
<path d="M6.29628 17.5241H12.5296C12.6785 17.5242 12.8258 17.4949 12.9634 17.438C13.1009 17.381 13.2259 17.2976 13.3311 17.1923C13.4364 17.0871 13.5199 16.9621 13.5769 16.8246C13.6339 16.6871 13.6632 16.5397 13.6632 16.3909V12.6887L16.1588 12.0057C16.3371 11.9558 16.4943 11.849 16.6064 11.7015C16.7184 11.5541 16.7793 11.3741 16.7797 11.1889V6.31393L16.9327 6.27109C17.1315 6.21543 17.3147 6.11466 17.4682 5.97664C17.6216 5.83861 17.7411 5.66705 17.8175 5.47529C17.8938 5.28353 17.9249 5.07675 17.9082 4.87103C17.8916 4.66531 17.8278 4.46619 17.7217 4.28917L16.7395 2.64559L16.7368 2.64759C16.7009 2.58541 16.6426 2.53931 16.5738 2.51876L9.71925 0.566385C9.51871 0.510037 9.30652 0.510037 9.10598 0.566385L2.25208 2.51842C2.1833 2.53901 2.12498 2.5851 2.08905 2.64725L2.08639 2.64559L1.10456 4.28917C0.998241 4.4662 0.934216 4.66538 0.917473 4.87121C0.90073 5.07703 0.931721 5.28394 1.00803 5.47583C1.08434 5.66771 1.20391 5.8394 1.35744 5.97751C1.51096 6.11562 1.69429 6.21643 1.89315 6.27209L2.04589 6.31526V11.1889C2.04643 11.3744 2.10767 11.5547 2.22026 11.7022C2.33285 11.8497 2.49061 11.9563 2.66945 12.0057L5.16304 12.6884V16.3906C5.163 16.5394 5.19227 16.6867 5.24918 16.8243C5.30609 16.9618 5.38953 17.0867 5.49473 17.192C5.59993 17.2972 5.72483 17.3807 5.8623 17.4377C5.99978 17.4947 6.14713 17.5241 6.29595 17.5241H6.29628ZM13.0964 16.3909C13.0964 16.7037 12.8427 16.9577 12.5296 16.9577H6.29628C6.14596 16.9577 6.0018 16.898 5.89551 16.7917C5.78921 16.6854 5.7295 16.5412 5.7295 16.3909V9.30756C5.7295 8.99445 5.98317 8.74078 6.29628 8.74078H12.5296C12.8427 8.74078 13.0964 8.99445 13.0964 9.30756V16.3909ZM16.2132 11.1889C16.2129 11.2501 16.1927 11.3096 16.1557 11.3583C16.1187 11.4071 16.0669 11.4426 16.008 11.4595L13.6628 12.1006V9.30723C13.6628 9.15838 13.6335 9.011 13.5765 8.87348C13.5196 8.73597 13.4361 8.61103 13.3308 8.50579C13.2255 8.40056 13.1006 8.31709 12.963 8.26016C12.8255 8.20323 12.6781 8.17395 12.5293 8.17399H9.696V5.79761L10.4537 7.06101C10.6053 7.31283 10.8352 7.50802 11.1084 7.61669C11.3815 7.72535 11.6827 7.7415 11.9658 7.66266L16.2132 6.47397V11.1889ZM17.2897 5.26702C17.2459 5.37765 17.1771 5.47662 17.0886 5.55614C17.0001 5.63565 16.8943 5.69353 16.7797 5.72523L11.8127 7.11679C11.6492 7.16241 11.4752 7.15311 11.3175 7.09031C11.1597 7.02751 11.0269 6.91468 10.9395 6.76915L9.84708 4.94727L16.3636 3.1224L17.2346 4.58004C17.2963 4.68221 17.3335 4.79735 17.343 4.91636C17.3526 5.03536 17.3343 5.15496 17.2897 5.26569V5.26702ZM9.26037 1.11192C9.35998 1.0837 9.46524 1.0837 9.56485 1.11192L15.4538 2.7887L9.41278 4.48042L3.37237 2.78903L9.26037 1.11192ZM1.53621 5.26536C1.49173 5.15448 1.47368 5.03477 1.48348 4.9157C1.49327 4.79664 1.53065 4.68149 1.59266 4.57937L2.4616 3.12207L8.97847 4.94694L7.88541 6.76915C7.79805 6.91477 7.66527 7.02766 7.5075 7.09047C7.34973 7.15327 7.17569 7.16252 7.01215 7.11679L2.04622 5.72556C1.9314 5.69365 1.82556 5.63549 1.73706 5.55569C1.64855 5.47588 1.57979 5.37661 1.53621 5.26569V5.26536ZM2.8192 11.4605C2.75988 11.4437 2.70766 11.4081 2.67044 11.3589C2.63323 11.3098 2.61307 11.2499 2.613 11.1882V6.47397L6.86008 7.66399C7.1432 7.74297 7.44441 7.72693 7.71753 7.61832C7.99066 7.5097 8.22062 7.31451 8.37218 7.06267L9.12955 5.79761V8.17399H6.29628C5.99573 8.17399 5.70749 8.29339 5.49496 8.50591C5.28244 8.71843 5.16304 9.00668 5.16304 9.30723V12.1006L2.8192 11.4605Z" stroke="#1F4173" stroke-width="0.4" mask="url(#path-1-outside-1_1_81)"/>
<path d="M7.79584 11.3739L7.14637 12.0237L7.06336 11.9407C7.01026 11.8875 6.93823 11.8576 6.8631 11.8576C6.78797 11.8576 6.71591 11.8874 6.66276 11.9405C6.60962 11.9936 6.57974 12.0656 6.57971 12.1408C6.57968 12.2159 6.6095 12.2879 6.6626 12.3411L6.94616 12.6247C6.99927 12.6777 7.07128 12.7076 7.14637 12.7076C7.22146 12.7076 7.29348 12.6777 7.34659 12.6247L8.1966 11.7746C8.24975 11.7215 8.27962 11.6495 8.27965 11.5744C8.27969 11.4992 8.24987 11.4272 8.19677 11.374C8.14367 11.3209 8.07163 11.291 7.9965 11.291C7.92138 11.291 7.84898 11.3208 7.79584 11.3739ZM11.9629 11.8576H9.12963C9.05451 11.8576 8.98247 11.8875 8.92935 11.9406C8.87624 11.9937 8.8464 12.0658 8.8464 12.1409C8.8464 12.216 8.87624 12.288 8.92935 12.3411C8.98247 12.3943 9.05451 12.4241 9.12963 12.4241H11.9632C12.0383 12.4241 12.1104 12.3943 12.1635 12.3411C12.2166 12.288 12.2464 12.216 12.2464 12.1409C12.2464 12.0658 12.2166 11.9937 12.1635 11.9406C12.1104 11.8875 12.038 11.8576 11.9629 11.8576ZM7.79584 13.0739L7.14637 13.7237L7.06336 13.6407C7.01026 13.5875 6.93823 13.5577 6.8631 13.5576C6.78797 13.5576 6.71591 13.5874 6.66276 13.6405C6.60962 13.6936 6.57974 13.7657 6.57971 13.8408C6.57968 13.9159 6.6095 13.988 6.6626 14.0411L6.94616 14.3243C6.99927 14.3774 7.07128 14.4072 7.14637 14.4072C7.22146 14.4072 7.29348 14.3774 7.34659 14.3243L8.1966 13.4743C8.24769 13.4208 8.27581 13.3494 8.27495 13.2755C8.27409 13.2015 8.24433 13.1308 8.19201 13.0785C8.1397 13.0262 8.069 12.9964 7.99503 12.9955C7.92105 12.9947 7.84935 13.0228 7.79584 13.0739ZM11.9629 13.5577H9.12963C9.05451 13.5577 8.98247 13.5875 8.92935 13.6406C8.87624 13.6937 8.8464 13.7658 8.8464 13.8409C8.8464 13.916 8.87624 13.9881 8.92935 14.0412C8.98247 14.0943 9.05451 14.1241 9.12963 14.1241H11.9632C12.0383 14.1241 12.1104 14.0943 12.1635 14.0412C12.2166 13.9881 12.2464 13.916 12.2464 13.8409C12.2464 13.7658 12.2166 13.6937 12.1635 13.6406C12.1104 13.5875 12.038 13.5577 11.9629 13.5577Z" fill="#1F4173" stroke="#1F4173" stroke-width="0.2"/>
</svg>
