<svg width="20" height="20" viewBox="0 0 20 20" fill="none" xmlns="http://www.w3.org/2000/svg">
<path d="M9.16666 1.66669C13.3067 1.66669 16.6667 5.02669 16.6667 9.16669C16.6667 13.3067 13.3067 16.6667 9.16666 16.6667C5.02666 16.6667 1.66666 13.3067 1.66666 9.16669C1.66666 5.02669 5.02666 1.66669 9.16666 1.66669ZM9.16666 15C12.3892 15 15 12.3892 15 9.16669C15 5.94335 12.3892 3.33335 9.16666 3.33335C5.94332 3.33335 3.33332 5.94335 3.33332 9.16669C3.33332 12.3892 5.94332 15 9.16666 15ZM16.2375 15.0592L18.595 17.4159L17.4158 18.595L15.0592 16.2375L16.2375 15.0592Z" fill="#1F4173"/>
</svg>
